<svg width="21" height="20" viewBox="0 0 21 20" fill="none" xmlns="http://www.w3.org/2000/svg">
<path d="M13.582 13.3327L15.2487 14.9993L18.582 11.666" fill="#2196F3"/>
<path d="M13.582 13.3327L15.2487 14.9993L18.582 11.666" stroke="#2E7D32" stroke-width="2" stroke-linecap="round" stroke-linejoin="round"/>
<path d="M17.75 8.33293V6.66626C17.7497 6.37399 17.6725 6.08693 17.5263 5.8339C17.38 5.58086 17.1698 5.37073 16.9167 5.22459L11.0833 1.89126C10.83 1.74498 10.5426 1.66797 10.25 1.66797C9.95744 1.66797 9.67003 1.74498 9.41667 1.89126L3.58333 5.22459C3.33022 5.37073 3.11998 5.58086 2.97372 5.8339C2.82745 6.08693 2.7503 6.37399 2.75 6.66626V13.3329C2.7503 13.6252 2.82745 13.9123 2.97372 14.1653C3.11998 14.4183 3.33022 14.6285 3.58333 14.7746L9.41667 18.1079C9.67003 18.2542 9.95744 18.3312 10.25 18.3312C10.5426 18.3312 10.83 18.2542 11.0833 18.1079L12.75 17.1579M6.5 3.55793L14 7.84959" stroke="#2E7D32" stroke-width="2" stroke-linecap="round" stroke-linejoin="round"/>
<path d="M2.99219 5.83203L10.2505 9.9987M10.2505 9.9987L17.5089 5.83203M10.2505 9.9987V18.332" stroke="#2E7D32" stroke-width="2" stroke-linecap="round" stroke-linejoin="round"/>
</svg>
