<svg xmlns="http://www.w3.org/2000/svg" width="13" height="13" viewBox="0 0 13 13" fill="none">
<g clip-path="url(#clip0_8017_210596)">
<path d="M6.51546 0.584961C3.2389 0.584961 0.571713 3.27559 0.571713 6.57793C0.571713 8.1623 1.18343 9.60371 2.18656 10.6771C1.87015 11.0779 1.11781 12.0061 0.784994 12.1701C0.138119 12.4912 1.00999 12.6693 2.01312 12.4631C2.55453 12.3506 3.13343 12.1303 3.53421 11.7576C4.41312 12.2732 5.43265 12.5709 6.51781 12.5709C9.79671 12.5709 12.4639 9.88027 12.4639 6.57793C12.4639 3.27559 9.79437 0.584961 6.51546 0.584961ZM6.51546 11.6357C3.74984 11.6357 1.49749 9.36465 1.49749 6.57793C1.49749 3.79121 3.74984 1.52012 6.51546 1.52012C9.28109 1.52012 11.5334 3.79121 11.5334 6.57793C11.5334 9.36465 9.28109 11.6357 6.51546 11.6357Z" fill="#73B0F9"/>
<path d="M3.20391 5.75313H9.76172C10.0172 5.75313 10.2234 5.54453 10.2211 5.28672C10.2211 5.02891 10.0148 4.82031 9.75938 4.82031H3.20391C2.94844 4.82031 2.74219 5.02891 2.74219 5.28672C2.74219 5.54453 2.94844 5.75313 3.20391 5.75313ZM9.76172 7.40547H3.20391C2.94844 7.40547 2.74219 7.61406 2.74219 7.87188C2.74219 8.12969 2.94844 8.33828 3.20391 8.33828H9.76172C10.0172 8.33828 10.2211 8.12969 10.2211 7.87188C10.2234 7.61406 10.0172 7.40547 9.76172 7.40547Z" fill="#73B0F9"/>
</g>
<defs>
<clipPath id="clip0_8017_210596">
<rect width="12" height="12" fill="white" transform="translate(0.5 0.580078)"/>
</clipPath>
</defs>
</svg>