<svg width="19" height="17" viewBox="0 0 19 17" fill="none" xmlns="http://www.w3.org/2000/svg">
<path d="M8.949 0.480853C9.78351 0.147007 10.7145 0.147007 11.549 0.480853L17.306 2.78485C17.876 3.01185 18.249 3.56385 18.249 4.17685V11.8229C18.249 12.1227 18.1592 12.4157 17.9911 12.664C17.8231 12.9123 17.5844 13.1045 17.306 13.2159L11.549 15.5189C11.0752 15.7084 10.5656 15.792 10.056 15.7639C9.98906 15.6452 9.9063 15.5362 9.81 15.4399L9.749 15.3799V6.83885L3.249 4.23885V7.02885C2.90803 7.06627 2.57249 7.14277 2.249 7.25685V4.17685C2.24915 3.87718 2.33906 3.58442 2.50713 3.33631C2.67521 3.08821 2.91375 2.89613 3.192 2.78485L8.949 0.480853ZM11.178 1.41085C10.582 1.17243 9.91704 1.17243 9.321 1.41085L7.971 1.95085L14.124 4.41085L16.403 3.50085L11.178 1.41085ZM12.778 4.95085L6.624 2.48785L4.095 3.49985L10.249 5.96185L12.778 4.95085ZM17.249 4.23785L10.749 6.83785V14.7179C10.895 14.6879 11.038 14.6449 11.177 14.5899L16.935 12.2869C17.0278 12.2496 17.1074 12.1854 17.1634 12.1025C17.2193 12.0197 17.2492 11.9219 17.249 11.8219V4.23785ZM3.749 15.0009C4.535 15.0009 5.261 14.7409 5.845 14.3039L8.395 16.8539C8.44142 16.9003 8.49655 16.9372 8.55722 16.9624C8.6179 16.9876 8.68295 17.0006 8.74864 17.0006C8.81434 17.0007 8.87941 16.9878 8.94012 16.9627C9.00083 16.9376 9.05601 16.9008 9.1025 16.8544C9.14899 16.8079 9.18587 16.7528 9.21106 16.6921C9.23624 16.6314 9.24923 16.5664 9.24928 16.5007C9.24932 16.435 9.23643 16.3699 9.21133 16.3092C9.18623 16.2485 9.14942 16.1933 9.103 16.1469L6.553 13.5969C7.02501 12.9656 7.27014 12.1936 7.24871 11.4057C7.22727 10.6178 6.94053 9.86018 6.43489 9.25555C5.92926 8.65093 5.23435 8.23467 4.46267 8.07418C3.691 7.91369 2.88774 8.01836 2.18297 8.37125C1.4782 8.72414 0.913166 9.30459 0.579368 10.0186C0.245571 10.7326 0.162549 11.5384 0.343746 12.3055C0.524942 13.0725 0.959749 13.756 1.57776 14.2452C2.19578 14.7344 2.96081 15.0006 3.749 15.0009ZM3.749 14.0009C3.08596 14.0009 2.45007 13.7375 1.98123 13.2686C1.51239 12.7998 1.249 12.1639 1.249 11.5009C1.249 10.8378 1.51239 10.2019 1.98123 9.73309C2.45007 9.26425 3.08596 9.00085 3.749 9.00085C4.41204 9.00085 5.04792 9.26425 5.51677 9.73309C5.98561 10.2019 6.249 10.8378 6.249 11.5009C6.249 12.1639 5.98561 12.7998 5.51677 13.2686C5.04792 13.7375 4.41204 14.0009 3.749 14.0009Z" fill="#2196F3"/>
</svg>
