<svg width="19" height="18" viewBox="0 0 19 18" fill="none" xmlns="http://www.w3.org/2000/svg">
<path fill-rule="evenodd" clip-rule="evenodd" d="M0.0820313 1.49935C0.0820313 1.27834 0.169829 1.06637 0.326109 0.910093C0.482389 0.753813 0.694351 0.666016 0.915365 0.666016H10.082C10.303 0.666016 10.515 0.753813 10.6713 0.910093C10.8276 1.06637 10.9154 1.27834 10.9154 1.49935V5.66602H14.2487C14.7959 5.66602 15.3377 5.77379 15.8432 5.98318C16.3487 6.19258 16.8081 6.49949 17.195 6.8864C17.5819 7.27331 17.8888 7.73265 18.0982 8.23817C18.3076 8.74369 18.4154 9.28551 18.4154 9.83268V13.166C18.4154 13.7025 18.243 14.2247 17.9236 14.6557C17.6041 15.0867 17.1545 15.4035 16.6412 15.5593C16.4884 16.0635 16.1802 16.5065 15.7606 16.8251C15.341 17.1437 14.8315 17.3216 14.3048 17.3334C13.7781 17.3453 13.2612 17.1904 12.8277 16.891C12.3943 16.5915 12.0665 16.1628 11.8912 15.666H6.60703C6.43172 16.1628 6.10394 16.5915 5.67049 16.891C5.23705 17.1904 4.72008 17.3453 4.19339 17.3334C3.6667 17.3216 3.15721 17.1437 2.73764 16.8251C2.31807 16.5065 2.00987 16.0635 1.85703 15.5593C1.34356 15.4036 0.893798 15.0869 0.57417 14.6559C0.254541 14.2249 0.0819994 13.7026 0.0820313 13.166V9.83268H5.08203C5.30304 9.83268 5.51501 9.74489 5.67129 9.5886C5.82757 9.43232 5.91536 9.22036 5.91536 8.99935C5.91536 8.77834 5.82757 8.56637 5.67129 8.41009C5.51501 8.25381 5.30304 8.16602 5.08203 8.16602H0.0820313V6.49935H3.41536C3.63638 6.49935 3.84834 6.41155 4.00462 6.25527C4.1609 6.09899 4.2487 5.88703 4.2487 5.66602C4.2487 5.445 4.1609 5.23304 4.00462 5.07676C3.84834 4.92048 3.63638 4.83268 3.41536 4.83268H0.0820313V1.49935ZM10.9154 13.9993H11.8912C12.0559 13.5331 12.3553 13.1261 12.7514 12.83C13.1474 12.5338 13.6224 12.3618 14.1163 12.3357C14.6101 12.3095 15.1006 12.4304 15.5257 12.6831C15.9509 12.9358 16.2915 13.3089 16.5045 13.7552C16.582 13.6779 16.6435 13.5861 16.6854 13.485C16.7273 13.3839 16.7488 13.2755 16.7487 13.166V9.83268C16.7487 9.16964 16.4853 8.53376 16.0165 8.06492C15.5476 7.59607 14.9117 7.33268 14.2487 7.33268H10.9154V13.9993ZM5.08203 14.8327C5.08203 14.6117 4.99423 14.3997 4.83795 14.2434C4.68167 14.0871 4.46971 13.9993 4.2487 13.9993C4.02768 13.9993 3.81572 14.0871 3.65944 14.2434C3.50316 14.3997 3.41536 14.6117 3.41536 14.8327C3.41536 15.0537 3.50316 15.2657 3.65944 15.4219C3.81572 15.5782 4.02768 15.666 4.2487 15.666C4.46971 15.666 4.68167 15.5782 4.83795 15.4219C4.99423 15.2657 5.08203 15.0537 5.08203 14.8327ZM13.6595 14.2435C13.5819 14.3207 13.5204 14.4125 13.4785 14.5137C13.4366 14.6148 13.4151 14.7232 13.4154 14.8327C13.4153 15.0255 13.4821 15.2123 13.6044 15.3614C13.7267 15.5104 13.8969 15.6125 14.086 15.6502C14.275 15.6878 14.4713 15.6587 14.6414 15.5679C14.8114 15.477 14.9447 15.33 15.0185 15.1519C15.0924 14.9738 15.1021 14.7756 15.0462 14.5911C14.9903 14.4066 14.8721 14.2472 14.7118 14.14C14.5515 14.0329 14.359 13.9847 14.1671 14.0035C13.9753 14.0224 13.7959 14.1072 13.6595 14.2435Z" fill="#2196F3"/>
</svg>
